<svg xmlns="http://www.w3.org/2000/svg" xmlns:xlink="http://www.w3.org/1999/xlink" width="780" height="809" viewBox="0 0 780 809"><defs><style>.a,.h{fill:#fff;}.b,.w,.x{fill:none;}.c{clip-path:url(#c);}.d{clip-path:url(#d);}.e{fill:url(#e);}.f{fill:url(#f);}.g{fill:url(#g);}.h{opacity:0.13;}.i{fill:url(#h);}.j,.s{mix-blend-mode:overlay;}.ab,.ai,.am,.j,.n,.s{isolation:isolate;}.k{fill:url(#i);}.l{fill:url(#j);}.m{fill:url(#k);}.ab,.n{mix-blend-mode:screen;}.o{fill:url(#l);}.p{fill:url(#m);}.q{fill:url(#n);}.r{fill:url(#o);}.s,.u{opacity:0.44;}.t{fill:url(#p);}.v{fill:url(#q);}.w,.x{stroke:#707070;stroke-miterlimit:10;}.w{stroke-width:0.396px;}.x{stroke-width:0.209px;}.y{fill:#f2f4df;}.z{opacity:0.51;}.aa{fill:#85eaf0;}.ab{fill:url(#r);}.ac{fill:url(#t);}.ad,.ai{fill:#f0f1f1;}.ae{fill:#e5e5e6;}.af{fill:url(#v);}.ag{fill:url(#w);}.ah{fill:url(#z);}.ai,.am{mix-blend-mode:multiply;}.aj{fill:url(#aa);}.ak{fill:#ccc;}.al{fill:url(#ab);}.an{fill:url(#ac);}.ao{fill:#a8b5c3;}.ap{fill:#7680ed;}.aq{filter:url(#a);}</style><filter id="a" x="-9" y="-7" width="810" height="839" filterUnits="userSpaceOnUse"><feOffset dx="6" dy="8" input="SourceAlpha"/><feGaussianBlur stdDeviation="5" result="b"/><feFlood flood-opacity="0.161"/><feComposite operator="in" in2="b"/><feComposite in="SourceGraphic"/></filter><clipPath id="c"><g class="aq" transform="matrix(1, 0, 0, 1, 0, 0)"><rect class="a" width="780" height="809" transform="translate(0 -17)"/></g></clipPath><clipPath id="d"><rect class="b" width="888.499" height="771.099"/></clipPath><linearGradient id="e" x1="-0.077" y1="0.111" x2="1.219" y2="0.985" gradientUnits="objectBoundingBox"><stop offset="0" stop-color="#6349fb"/><stop offset="0.31" stop-color="#192cfa"/><stop offset="1" stop-color="#230098"/></linearGradient><linearGradient id="f" x1="1.129" y1="-0.306" x2="-0.498" y2="1.78" gradientUnits="objectBoundingBox"><stop offset="0.167" stop-color="#85eaf0"/><stop offset="0.304" stop-color="#7580fc"/><stop offset="0.31" stop-color="#707cfb"/><stop offset="0.354" stop-color="#5563fb"/><stop offset="0.404" stop-color="#3f4ffa"/><stop offset="0.462" stop-color="#2e3ffa"/><stop offset="0.533" stop-color="#2134fa"/><stop offset="0.63" stop-color="#1a2dfa"/><stop offset="0.879" stop-color="#192cfa"/></linearGradient><linearGradient id="g" x1="7.882" y1="-8.774" x2="6.246" y2="-6.186" gradientUnits="objectBoundingBox"><stop offset="0.009" stop-color="#6b2edb" stop-opacity="0"/><stop offset="0.365" stop-color="#2d2cf7" stop-opacity="0.6"/><stop offset="0.816" stop-color="#009eff"/></linearGradient><linearGradient id="h" x1="0.914" y1="-0.25" x2="-0.397" y2="0.809" gradientUnits="objectBoundingBox"><stop offset="0.214" stop-color="#77d1f1" stop-opacity="0"/><stop offset="0.215" stop-color="#76cff1" stop-opacity="0.008"/><stop offset="0.239" stop-color="#62adf2" stop-opacity="0.216"/><stop offset="0.265" stop-color="#518ff4" stop-opacity="0.4"/><stop offset="0.292" stop-color="#4274f6" stop-opacity="0.561"/><stop offset="0.32" stop-color="#355ef7" stop-opacity="0.698"/><stop offset="0.35" stop-color="#2b4bf8" stop-opacity="0.808"/><stop offset="0.382" stop-color="#233df9" stop-opacity="0.894"/><stop offset="0.418" stop-color="#1d33f9" stop-opacity="0.953"/><stop offset="0.459" stop-color="#1a2df9" stop-opacity="0.988"/><stop offset="0.521" stop-color="#192cfa"/><stop offset="0.578" stop-color="#1d30f9"/><stop offset="0.643" stop-color="#2b3cf8"/><stop offset="0.711" stop-color="#4251f6"/><stop offset="0.781" stop-color="#616ef3"/><stop offset="0.854" stop-color="#8a94ef"/><stop offset="0.927" stop-color="#bbc1ea"/><stop offset="1" stop-color="#f5f6e5"/></linearGradient><linearGradient id="i" x1="0.657" y1="-0.366" x2="-0.654" y2="0.693" gradientUnits="objectBoundingBox"><stop offset="0" stop-color="#85eaf0" stop-opacity="0"/><stop offset="0.002" stop-color="#83e8f0" stop-opacity="0.008"/><stop offset="0.039" stop-color="#6dc1f2" stop-opacity="0.216"/><stop offset="0.079" stop-color="#599ef3" stop-opacity="0.4"/><stop offset="0.121" stop-color="#487ff5" stop-opacity="0.561"/><stop offset="0.165" stop-color="#3965f6" stop-opacity="0.698"/><stop offset="0.211" stop-color="#2d50f8" stop-opacity="0.808"/><stop offset="0.261" stop-color="#2440f8" stop-opacity="0.894"/><stop offset="0.317" stop-color="#1e34f9" stop-opacity="0.953"/><stop offset="0.382" stop-color="#1a2ef9" stop-opacity="0.988"/><stop offset="0.478" stop-color="#192cfa"/><stop offset="0.54" stop-color="#1d30f9"/><stop offset="0.61" stop-color="#2b3cf8"/><stop offset="0.684" stop-color="#4251f6"/><stop offset="0.761" stop-color="#616ef3"/><stop offset="0.84" stop-color="#8a94ef"/><stop offset="0.92" stop-color="#bbc1ea"/><stop offset="1" stop-color="#f5f6e5"/></linearGradient><linearGradient id="j" x1="0.636" y1="-0.623" x2="-0.675" y2="0.436" gradientUnits="objectBoundingBox"><stop offset="0.009" stop-color="#6b2edb" stop-opacity="0"/><stop offset="0.316" stop-color="#2d2cf7" stop-opacity="0.6"/><stop offset="0.547" stop-color="#136dfc" stop-opacity="0.851"/><stop offset="0.965" stop-color="#c9ebff"/></linearGradient><linearGradient id="k" x1="0.423" y1="-0.659" x2="-0.888" y2="0.4" xlink:href="#j"/><linearGradient id="l" x1="0.542" y1="-0.364" x2="-0.769" y2="0.695" xlink:href="#j"/><linearGradient id="m" x1="0.674" y1="-0.742" x2="-0.636" y2="0.317" xlink:href="#j"/><linearGradient id="n" x1="0.46" y1="-0.801" x2="-0.851" y2="0.258" xlink:href="#j"/><linearGradient id="o" x1="0.39" y1="-0.363" x2="-0.937" y2="0.677" xlink:href="#j"/><linearGradient id="p" x1="1.145" y1="0.068" x2="-0.207" y2="1.076" xlink:href="#j"/><linearGradient id="q" x1="0.779" y1="-0.267" x2="-0.532" y2="0.793" xlink:href="#j"/><linearGradient id="r" x1="0.5" y1="0.912" x2="0.5" y2="0.394" gradientUnits="objectBoundingBox"><stop offset="0"/><stop offset="0.102" stop-color="#050709"/><stop offset="0.268" stop-color="#151a21"/><stop offset="0.479" stop-color="#2e3949"/><stop offset="0.725" stop-color="#506481"/><stop offset="1" stop-color="#7d9bc8"/></linearGradient><linearGradient id="t" x1="0.5" y1="0.982" x2="0.5" y2="0.039" gradientUnits="objectBoundingBox"><stop offset="0.041" stop-color="#f7ec41"/><stop offset="0.613" stop-color="#e7ad47"/><stop offset="0.785" stop-color="#db8038"/><stop offset="0.921" stop-color="#d4642f"/><stop offset="1" stop-color="#d25a2c"/></linearGradient><linearGradient id="v" x1="0.216" y1="0.182" x2="0.642" y2="1.319" gradientUnits="objectBoundingBox"><stop offset="0" stop-color="#1ee4f9"/><stop offset="1" stop-color="#1d46fb"/></linearGradient><linearGradient id="w" x1="0.306" y1="-0.556" x2="0.694" y2="1.556" xlink:href="#v"/><linearGradient id="z" x1="0.16" y1="0.216" x2="0.643" y2="1.256" xlink:href="#v"/><linearGradient id="aa" x1="0.358" y1="-2.289" x2="0.642" y2="3.289" xlink:href="#v"/><linearGradient id="ab" x1="0.343" y1="-1.327" x2="0.657" y2="2.327" xlink:href="#v"/><linearGradient id="ac" x1="0.102" x2="0.882" y2="1.045" gradientUnits="objectBoundingBox"><stop offset="0" stop-color="#636bec"/><stop offset="0.258" stop-color="#5e5ae2"/><stop offset="0.766" stop-color="#532ecb"/><stop offset="1" stop-color="#4e18bf"/></linearGradient></defs><g class="c" transform="translate(0 17)"><g transform="translate(40.915 -1.55)"><g class="d" transform="translate(-95.165)"><rect class="e" width="888.499" height="771.13" transform="translate(0 -0.031)"/><g transform="translate(41.059 -40.402)"><circle class="f" cx="138.518" cy="138.518" r="138.518" transform="translate(305.4 268.745) rotate(-45)"/><g transform="translate(57.893 57.365)"><path class="g" d="M223.208,100.116h0A7.082,7.082,0,0,1,224.584,90L324.21,17.312a2.164,2.164,0,0,1,2.971.4h0a2.165,2.165,0,0,1-.286,2.985l-93.519,80.388A7.082,7.082,0,0,1,223.208,100.116Z" transform="translate(14.526 -16.896)"/><g transform="translate(271.324 305.581)"><path class="h" d="M294.245,448.471a18.793,18.793,0,1,1-18.793-18.793A18.794,18.794,0,0,1,294.245,448.471Z" transform="translate(-256.659 -320.845)"/><path class="i" d="M268.587,455.1h0a10.835,10.835,0,0,1,1.449-15.558l147.578-117.55a3.31,3.31,0,0,1,4.567.425h0a3.309,3.309,0,0,1-.243,4.58L284.192,455.931A10.836,10.836,0,0,1,268.587,455.1Z" transform="translate(-256.622 -321.274)"/></g><g class="j" transform="translate(270.61 562.803)"><circle class="h" cx="12.905" cy="12.905" r="12.905" transform="translate(0 74.735)"/><path class="k" d="M264.139,669.382h0a7.44,7.44,0,0,1,.995-10.684l101.341-80.721a2.274,2.274,0,0,1,3.136.291h0a2.273,2.273,0,0,1-.168,3.145l-94.59,88.537A7.441,7.441,0,0,1,264.139,669.382Z" transform="translate(-255.923 -577.482)"/></g><g class="j" transform="translate(187.071 251.784)"><path class="h" d="M189.676,325.009a8.469,8.469,0,1,1-8.468-8.469A8.469,8.469,0,0,1,189.676,325.009Z" transform="translate(-172.738 -267.495)"/><path class="l" d="M178.114,328h0a4.882,4.882,0,0,1,.653-7.012l66.5-52.974a1.492,1.492,0,0,1,2.058.192h0a1.492,1.492,0,0,1-.109,2.064l-62.074,58.1A4.882,4.882,0,0,1,178.114,328Z" transform="translate(-172.721 -267.689)"/></g><g transform="translate(156.368 516.682)"><path class="h" d="M159.095,588.863a8.469,8.469,0,1,1-8.469-8.468A8.469,8.469,0,0,1,159.095,588.863Z" transform="translate(-142.156 -531.35)"/><path class="m" d="M147.532,591.853h0a4.884,4.884,0,0,1,.653-7.012l66.506-52.974a1.493,1.493,0,0,1,2.058.192h0a1.492,1.492,0,0,1-.11,2.064l-62.074,58.1A4.883,4.883,0,0,1,147.532,591.853Z" transform="translate(-142.139 -531.543)"/></g><g class="n" transform="translate(472.675 360.314)"><path class="h" d="M474.155,433.111a8.469,8.469,0,1,1-8.469-8.469A8.469,8.469,0,0,1,474.155,433.111Z" transform="translate(-457.217 -375.597)"/><path class="o" d="M462.592,436.1h0a4.883,4.883,0,0,1,.654-7.012l66.5-52.974a1.492,1.492,0,0,1,2.058.192h0a1.492,1.492,0,0,1-.109,2.064l-62.074,58.1A4.885,4.885,0,0,1,462.592,436.1Z" transform="translate(-457.2 -375.791)"/></g><g transform="translate(57.121 207.516)"><path class="h" d="M60.238,280.915a8.469,8.469,0,1,1-8.469-8.469A8.469,8.469,0,0,1,60.238,280.915Z" transform="translate(-43.3 -223.401)"/><path class="p" d="M48.676,283.9h0a4.881,4.881,0,0,1,.653-7.011l66.5-52.974a1.491,1.491,0,0,1,2.058.192h0a1.492,1.492,0,0,1-.109,2.064l-62.074,58.1A4.883,4.883,0,0,1,48.676,283.9Z" transform="translate(-43.283 -223.594)"/></g><g transform="translate(0 475.983)"><path class="h" d="M3.342,548.325a8.469,8.469,0,0,1-8.468,8.469,8.469,8.469,0,0,1-8.469-8.469,8.469,8.469,0,0,1,8.469-8.469A8.469,8.469,0,0,1,3.342,548.325Z" transform="translate(13.596 -490.811)"/><path class="q" d="M-8.22,551.315h0a4.883,4.883,0,0,1,.653-7.012l66.506-52.974a1.491,1.491,0,0,1,2.057.192h0a1.491,1.491,0,0,1-.109,2.064l-62.074,58.1A4.883,4.883,0,0,1-8.22,551.315Z" transform="translate(13.613 -491.005)"/></g><g transform="translate(483.385 492.376)"><path class="h" d="M483.693,562.48a7.908,7.908,0,1,1-7.9-8.149A8.028,8.028,0,0,1,483.693,562.48Z" transform="translate(-467.885 -507.147)"/><path class="r" d="M472.9,565.355h0a4.8,4.8,0,0,1,.609-6.746l62.072-50.964a1.363,1.363,0,0,1,1.921.185h0a1.467,1.467,0,0,1-.1,1.985l-57.937,55.9A4.465,4.465,0,0,1,472.9,565.355Z" transform="translate(-467.87 -507.333)"/></g><g class="s" transform="translate(638.912 189.158)"><path class="h" d="M656.027,330.488c-.3,10.473-7.98,18.75-17.153,18.487s-16.365-8.966-16.065-19.44,7.98-18.75,17.154-18.486S656.327,320.015,656.027,330.488Z" transform="translate(-622.8 -204.89)"/><path class="t" d="M633.171,336.516h0a12.011,12.011,0,0,1,1.731-15.662L768.727,205.985a2.679,2.679,0,0,1,4.024.545h0a3.687,3.687,0,0,1-.347,4.615l-125.466,126.6A8.79,8.79,0,0,1,633.171,336.516Z" transform="translate(-622.767 -205.309)"/></g><g class="u" transform="translate(569.779 63.286)"><path class="h" d="M570.878,137.253a8.469,8.469,0,1,1-8.469-8.469A8.469,8.469,0,0,1,570.878,137.253Z" transform="translate(-553.939 -79.739)"/><path class="v" d="M559.315,140.243h0a4.883,4.883,0,0,1,.654-7.012l66.5-52.974a1.492,1.492,0,0,1,2.058.192h0a1.492,1.492,0,0,1-.109,2.064l-62.075,58.1A4.883,4.883,0,0,1,559.315,140.243Z" transform="translate(-553.922 -79.933)"/></g></g><g transform="translate(29.207)"><path class="w" d="M693.219,528.256a54.984,54.984,0,1,1-78.037-73.962" transform="translate(44.674 42.198)"/><path class="w" d="M-35.676,704.828A54.984,54.984,0,1,1,67.676,675.19" transform="translate(42.169 42.869)"/><path class="w" d="M100.792,68.822A54.984,54.984,0,1,1,22.754-5.14" transform="translate(42.331 40.382)"/><path class="x" d="M629.26,679.688a29.046,29.046,0,1,1,29.755,48.38" transform="translate(44.824 43.058)"/><path class="x" d="M102.6,365.224a29.046,29.046,0,1,1-40.953,39.355" transform="translate(42.58 41.846)"/><path class="w" d="M600.447,8.54A54.946,54.946,0,0,1,562.9,47.158,54.979,54.979,0,0,1,494.58,10.036a54.915,54.915,0,0,1,10.053-50.279" transform="translate(44.283 40.243)"/></g><g transform="translate(0 100.417)"><g class="j" transform="translate(0 0)"><path class="y" d="M-34.433,80.679a1.911,1.911,0,0,1-2.183,1.593,1.911,1.911,0,0,1-1.541-2.22,1.912,1.912,0,0,1,2.183-1.594A1.912,1.912,0,0,1-34.433,80.679Z" transform="translate(71.392 -59.705)"/><path class="y" d="M-67.509,153a1.912,1.912,0,0,1-2.183,1.594,1.913,1.913,0,0,1-1.542-2.221,1.912,1.912,0,0,1,2.183-1.593A1.911,1.911,0,0,1-67.509,153Z" transform="translate(71.261 -59.419)"/><path class="y" d="M16.6,62.024a1.889,1.889,0,1,1-1.541-2.22A1.91,1.91,0,0,1,16.6,62.024Z" transform="translate(71.594 -59.778)"/><g transform="translate(95.316 39.762)"><path class="y" d="M27.432,128.785a1.889,1.889,0,1,1-1.542-2.22A1.912,1.912,0,0,1,27.432,128.785Z" transform="translate(-23.679 -99.276)"/><path class="y" d="M125.164,101.629a1.888,1.888,0,1,1-1.541-2.22A1.911,1.911,0,0,1,125.164,101.629Z" transform="translate(-23.293 -99.383)"/><path class="y" d="M84.2,173.886a1.889,1.889,0,1,1-1.541-2.221A1.912,1.912,0,0,1,84.2,173.886Z" transform="translate(-23.455 -99.098)"/><path class="y" d="M151.636,186.165a1.889,1.889,0,1,1-1.542-2.22A1.911,1.911,0,0,1,151.636,186.165Z" transform="translate(-23.188 -99.049)"/><path class="y" d="M173.639,133.513a1.889,1.889,0,1,1-1.542-2.221A1.912,1.912,0,0,1,173.639,133.513Z" transform="translate(-23.101 -99.257)"/><path class="y" d="M123.717,151.671a2.9,2.9,0,1,1-2.367-3.409A2.935,2.935,0,0,1,123.717,151.671Z" transform="translate(-23.307 -99.19)"/></g><path class="y" d="M-46.972,209.564a3.589,3.589,0,0,1-4.1,2.994,3.591,3.591,0,0,1-2.9-4.17,3.59,3.59,0,0,1,4.1-2.993A3.588,3.588,0,0,1-46.972,209.564Z" transform="translate(71.33 -59.203)"/><path class="y" d="M204.494,69.391a3.548,3.548,0,1,1-2.9-4.169A3.592,3.592,0,0,1,204.494,69.391Z" transform="translate(72.324 -59.757)"/><path class="y" d="M210.9,250.042a3.548,3.548,0,1,1-2.9-4.169A3.59,3.59,0,0,1,210.9,250.042Z" transform="translate(72.349 -59.043)"/><g transform="translate(28.074 301.783)"><path class="y" d="M-39.546,381.273a1.912,1.912,0,0,1-2.183,1.594,1.913,1.913,0,0,1-1.542-2.221,1.912,1.912,0,0,1,2.184-1.593A1.911,1.911,0,0,1-39.546,381.273Z" transform="translate(43.299 -360.299)"/><path class="y" d="M11.49,362.619A1.889,1.889,0,1,1,9.949,360.4,1.91,1.91,0,0,1,11.49,362.619Z" transform="translate(43.5 -360.372)"/><path class="y" d="M40.387,386.262a1.889,1.889,0,1,1-1.542-2.22A1.912,1.912,0,0,1,40.387,386.262Z" transform="translate(43.615 -360.279)"/><path class="y" d="M70.342,414.779a1.889,1.889,0,1,1-1.542-2.22A1.912,1.912,0,0,1,70.342,414.779Z" transform="translate(43.733 -360.166)"/><path class="y" d="M79.087,474.48a1.889,1.889,0,1,1-1.542-2.22A1.913,1.913,0,0,1,79.087,474.48Z" transform="translate(43.768 -359.93)"/><path class="y" d="M146.522,486.759a1.888,1.888,0,1,1-1.541-2.22A1.911,1.911,0,0,1,146.522,486.759Z" transform="translate(44.034 -359.881)"/><path class="y" d="M168.525,434.107a1.889,1.889,0,1,1-1.541-2.22A1.911,1.911,0,0,1,168.525,434.107Z" transform="translate(44.121 -360.09)"/></g><g transform="translate(580.685 481.594)"><path class="y" d="M510.888,560.376a1.889,1.889,0,1,1-1.541-2.22A1.91,1.91,0,0,1,510.888,560.376Z" transform="translate(-507.136 -539.402)"/><path class="y" d="M561.925,541.721a1.889,1.889,0,1,1-1.542-2.22A1.912,1.912,0,0,1,561.925,541.721Z" transform="translate(-506.935 -539.475)"/><path class="y" d="M590.821,565.364a1.888,1.888,0,1,1-1.541-2.22A1.911,1.911,0,0,1,590.821,565.364Z" transform="translate(-506.82 -539.382)"/><path class="y" d="M620.776,593.882a1.889,1.889,0,1,1-1.541-2.22A1.911,1.911,0,0,1,620.776,593.882Z" transform="translate(-506.702 -539.269)"/><path class="y" d="M629.521,653.583a1.889,1.889,0,1,1-1.542-2.22A1.912,1.912,0,0,1,629.521,653.583Z" transform="translate(-506.667 -539.033)"/><path class="y" d="M696.957,665.862a1.889,1.889,0,1,1-1.542-2.22A1.912,1.912,0,0,1,696.957,665.862Z" transform="translate(-506.4 -538.984)"/><path class="y" d="M718.96,613.21a1.889,1.889,0,1,1-1.542-2.22A1.911,1.911,0,0,1,718.96,613.21Z" transform="translate(-506.313 -539.193)"/></g><path class="y" d="M236.165,413.619a2.9,2.9,0,1,1-2.367-3.409A2.936,2.936,0,0,1,236.165,413.619Z" transform="translate(72.454 -58.393)"/><path class="y" d="M256.27,173.931a2.077,2.077,0,1,1-1.7-2.441A2.1,2.1,0,0,1,256.27,173.931Z" transform="translate(72.54 -59.337)"/><path class="y" d="M600.31,491.065a1.785,1.785,0,1,1-1.464-2.056A1.785,1.785,0,0,1,600.31,491.065Z" transform="translate(73.903 -58.081)"/><path class="y" d="M527.786,433.435a1.785,1.785,0,1,1-1.464-2.057A1.784,1.784,0,0,1,527.786,433.435Z" transform="translate(73.616 -58.309)"/><path class="y" d="M273.228,368.993a1.785,1.785,0,1,1-1.465-2.056A1.785,1.785,0,0,1,273.228,368.993Z" transform="translate(72.61 -58.564)"/><path class="y" d="M175.425,247.253a1.785,1.785,0,1,1-1.464-2.055A1.785,1.785,0,0,1,175.425,247.253Z" transform="translate(72.223 -59.045)"/><path class="y" d="M614.216,335.464a1.785,1.785,0,1,1-1.465-2.056A1.787,1.787,0,0,1,614.216,335.464Z" transform="translate(73.958 -58.696)"/><path class="y" d="M353.251,540.764a2.9,2.9,0,1,1-2.367-3.409A2.935,2.935,0,0,1,353.251,540.764Z" transform="translate(72.917 -57.89)"/><path class="y" d="M438.632,556.188a1.785,1.785,0,1,1-1.465-2.056A1.785,1.785,0,0,1,438.632,556.188Z" transform="translate(73.264 -57.824)"/><path class="y" d="M336.068,492.786a1.785,1.785,0,1,1-1.465-2.057A1.785,1.785,0,0,1,336.068,492.786Z" transform="translate(72.858 -58.074)"/><path class="y" d="M451.785,113.431a1.785,1.785,0,1,1-1.464-2.057A1.785,1.785,0,0,1,451.785,113.431Z" transform="translate(73.316 -59.574)"/><path class="y" d="M-62.461,456.78a1.786,1.786,0,0,1-2.056,1.465,1.786,1.786,0,0,1-1.465-2.057,1.785,1.785,0,0,1,2.056-1.464A1.784,1.784,0,0,1-62.461,456.78Z" transform="translate(71.282 -58.217)"/><path class="y" d="M103.6,271.235a1.785,1.785,0,1,1-1.464-2.056A1.784,1.784,0,0,1,103.6,271.235Z" transform="translate(71.939 -58.95)"/><path class="y" d="M263.25,235.338a1.785,1.785,0,1,1-1.465-2.056A1.785,1.785,0,0,1,263.25,235.338Z" transform="translate(72.57 -59.092)"/></g><g class="z" transform="translate(196.589 33.326)"><path class="aa" d="M250.237,176.084a5.59,5.59,0,1,1-5.59-5.591A5.59,5.59,0,0,1,250.237,176.084Z" transform="translate(-124.1 -92.666)"/><path class="y" d="M654.2,407.934a5.59,5.59,0,1,1-5.59-5.59A5.59,5.59,0,0,1,654.2,407.934Z" transform="translate(-122.503 -91.75)"/><path class="y" d="M392.477,663.965a5.591,5.591,0,1,1-5.591-5.59A5.591,5.591,0,0,1,392.477,663.965Z" transform="translate(-123.538 -90.737)"/><path class="aa" d="M135.735,98.563a5.591,5.591,0,1,1-5.591-5.59A5.591,5.591,0,0,1,135.735,98.563Z" transform="translate(-124.553 -92.973)"/><path class="aa" d="M624.392,203.3a5.591,5.591,0,1,1-5.591-5.591A5.591,5.591,0,0,1,624.392,203.3Z" transform="translate(-122.621 -92.559)"/><path class="aa" d="M195.3,436.679a5.591,5.591,0,1,1-5.591-5.591A5.59,5.59,0,0,1,195.3,436.679Z" transform="translate(-124.317 -91.636)"/><path class="aa" d="M383.054,459.437a5.591,5.591,0,1,1-5.591-5.591A5.59,5.59,0,0,1,383.054,459.437Z" transform="translate(-123.575 -91.546)"/><path class="aa" d="M591.435,664.262a5.59,5.59,0,1,1-5.591-5.591A5.59,5.59,0,0,1,591.435,664.262Z" transform="translate(-122.751 -90.736)"/></g></g></g><g transform="translate(440.435 410.17)"><rect class="ab" width="44.235" height="212.774"/><rect class="ab" width="25.214" height="336.175" transform="translate(9.511)"/><path class="ac" d="M350.967,506.869c-.88,2.173-1.825,4.376-2.809,6.61-17.264-39.073-19.438-69.059-18.6-86.21.1-2.184.259-4.153.441-5.91.271-2.721.608-4.924.906-6.58.453-2.447.815-3.717.815-3.717l-.026.629,10.78-.2,12.179-.233,6.613-.133,3.326-.061s.362,1.27.815,3.717c.3,1.656.634,3.859.906,6.58.207,1.96.375,4.195.479,6.682C367.493,444.309,365.436,471.583,350.967,506.869Z" transform="translate(-326.53 -408.544)"/><path class="ac" d="M349.657,479.722c-.48,1.557-.995,3.136-1.532,4.738-9.416-28-10.6-49.492-10.143-61.782.056-1.565.141-2.977.24-4.236.148-1.95.331-3.529.494-4.716.247-1.753.445-2.663.445-2.663l-.014.452,5.88-.146,6.642-.168,3.607-.094,1.814-.044s.2.911.445,2.663c.163,1.187.346,2.766.494,4.716.113,1.4.2,3.006.261,4.789C358.672,434.889,357.549,454.435,349.657,479.722Z" transform="translate(-326.496 -408.544)"/></g><g transform="translate(375.839 180.426)"><g transform="translate(0)"><g transform="translate(0 123.049)"><g transform="translate(114.634)"><path class="ad" d="M422.983,387.529l-46.6-14.269V302.28l46.6,41.181Z" transform="translate(-376.382 -302.28)"/><path class="ae" d="M420.044,387.745a6.788,6.788,0,0,0,6.788,6.787h0a6.787,6.787,0,0,0,6.787-6.787v-49.3H420.044Z" transform="translate(-376.21 -302.137)"/><path class="af" d="M423.251,331.908l-3.207,6.575h13.574l-3.207-6.575A3.983,3.983,0,0,0,423.251,331.908Z" transform="translate(-376.21 -302.171)"/><g transform="translate(42.45 86.847)"><path class="ae" d="M435.008,392.188H418.666l1.381-3.4h13.581Z" transform="translate(-418.666 -388.785)"/><rect class="ag" width="16.342" height="5.193" transform="translate(0 3.403)"/></g></g><path class="ad" d="M274.344,387.529l46.6-14.269V302.28l-46.6,41.181Z" transform="translate(-262.152 -302.28)"/><path class="ae" d="M277.154,387.745a6.788,6.788,0,0,1-6.788,6.787h0a6.787,6.787,0,0,1-6.787-6.787v-49.3h13.574Z" transform="translate(-262.195 -302.137)"/><path class="af" d="M273.946,331.908l3.208,6.575H263.579l3.207-6.575A3.983,3.983,0,0,1,273.946,331.908Z" transform="translate(-262.195 -302.171)"/><g transform="translate(0 86.847)"><path class="ae" d="M262.2,392.188h16.342l-1.381-3.4H263.581Z" transform="translate(-262.2 -388.785)"/><rect class="ag" width="16.342" height="5.193" transform="translate(16.342 8.597) rotate(180)"/></g></g><path class="ah" d="M373.485,218.43l-17.723-34.4a7.967,7.967,0,0,0-14.165,0l-17.723,34.4c-.943,1.83-1.828,3.686-2.681,5.554h54.973C375.313,222.116,374.429,220.261,373.485,218.43Z" transform="translate(-261.967 -179.716)"/><path class="a" d="M321.24,223.81a129.012,129.012,0,0,0-11.649,53.543V382.385h78.27V277.353a129.028,129.028,0,0,0-11.649-53.543Z" transform="translate(-262.013 -179.541)"/><path class="ai" d="M337.094,223.984c.36-1.868.735-3.724,1.134-5.554l7.5-34.4c.627-2.879,1.812-4.318,3-4.318a7.879,7.879,0,0,0-7.083,4.318l-17.723,34.4c-.943,1.83-1.828,3.686-2.681,5.554a129.012,129.012,0,0,0-11.649,53.543V382.559h22.574V277.527A285.3,285.3,0,0,1,337.094,223.984Z" transform="translate(-262.013 -179.716)"/><path class="ai" d="M376.058,223.984c-.853-1.868-1.738-3.724-2.682-5.554l-17.723-34.4a7.877,7.877,0,0,0-7.082-4.318c1.185,0,2.369,1.439,3,4.318l7.5,34.4c.4,1.83.774,3.686,1.134,5.554a285.3,285.3,0,0,1,4.93,53.543V382.559h22.574V277.527A129.028,129.028,0,0,0,376.058,223.984Z" transform="translate(-261.858 -179.716)"/><rect class="aj" width="94.183" height="8.297" rx="1.15" transform="translate(39.622 202.843)"/><path class="ae" d="M379.238,404.079h-61.1l3.045-8.268,2.128-5.78h50.772l2.128,5.78Z" transform="translate(-261.979 -178.884)"/><path class="ak" d="M376.2,395.811H321.168l2.128-5.78h50.772Z" transform="translate(-261.967 -178.884)"/><rect class="al" width="61.1" height="9.108" transform="translate(56.163 225.189)"/><g class="am" transform="translate(47.578 0)"><path class="ad" d="M330.424,223.984c.567-1.868,1.158-3.724,1.785-5.554l11.8-34.4c.987-2.879,2.851-4.318,4.716-4.318a7.879,7.879,0,0,0-7.083,4.318l-17.723,34.4c-.943,1.83-1.828,3.686-2.681,5.554a129.012,129.012,0,0,0-11.649,53.543V382.559h13.077V277.527A185.327,185.327,0,0,1,330.424,223.984Z" transform="translate(-309.591 -179.716)"/><path class="ad" d="M376.058,223.984c-.852-1.868-1.738-3.724-2.682-5.554l-17.723-34.4a7.877,7.877,0,0,0-7.082-4.318c1.864,0,3.728,1.439,4.716,4.318l11.8,34.4c.628,1.83,1.218,3.686,1.785,5.554a185.326,185.326,0,0,1,7.757,53.543V382.559h13.077V277.527A129.028,129.028,0,0,0,376.058,223.984Z" transform="translate(-309.437 -179.716)"/></g></g><g transform="translate(64.597 78.683)"><path class="an" d="M5.67,0H35.239a5.67,5.67,0,0,1,5.67,5.67V51.888a.939.939,0,0,1-.939.939H.939A.939.939,0,0,1,0,51.888V5.67A5.67,5.67,0,0,1,5.67,0Z" transform="translate(1.661 1.662)"/><path class="ao" d="M365.726,314.241H331.591a5.055,5.055,0,0,1-5.048-5.05V280.205a22.116,22.116,0,1,1,44.232,0v28.986A5.055,5.055,0,0,1,365.726,314.241Zm-17.067-52.828a18.813,18.813,0,0,0-18.792,18.792v28.986a1.727,1.727,0,0,0,1.724,1.726h34.135a1.727,1.727,0,0,0,1.725-1.726V280.205A18.813,18.813,0,0,0,348.659,261.413Z" transform="translate(-326.543 -258.089)"/></g><path class="ap" d="M349.017,277.06c0,4.2-2.919,7.61-6.523,7.61s-6.523-3.406-6.523-7.61,2.921-7.61,6.523-7.61S349.017,272.857,349.017,277.06Z" transform="translate(-261.908 -179.361)"/></g></g></g></g></svg>