<svg xmlns="http://www.w3.org/2000/svg" width="13.529" height="17.722" viewBox="0 0 13.529 17.722">
    <defs>
        <style>
            .cls-1{fill:#1c7cd5}
        </style>
    </defs>
    <g id="invoice" transform="translate(-50.529)">
        <g id="Grupo_2880" transform="translate(50.529)">
            <g id="Grupo_2879">
                <path id="Trazado_3822" d="M63.572.458a.817.817 0 0 0-.889.135l-1.152 1.02L59.965.212a.829.829 0 0 0-1.106 0l-1.566 1.4-1.566-1.4a.829.829 0 0 0-1.106 0l-1.567 1.4L51.9.593a.824.824 0 0 0-1.372.622v15.292a.825.825 0 0 0 1.374.622l1.152-1.02 1.567 1.4a.829.829 0 0 0 1.106 0l1.566-1.4 1.566 1.4a.829.829 0 0 0 1.106 0l1.567-1.4 1.153 1.02a.824.824 0 0 0 1.372-.622V1.215a.817.817 0 0 0-.485-.757zm-1.491 15.029a.829.829 0 0 0-1.1 0l-1.567 1.4-1.566-1.4a.829.829 0 0 0-1.106 0l-1.566 1.4-1.568-1.4a.824.824 0 0 0-1.1 0l-1.149 1.02V1.216l1.15 1.02a.829.829 0 0 0 1.1 0L55.174.83l1.566 1.4a.829.829 0 0 0 1.106 0l1.566-1.4 1.568 1.4a.824.824 0 0 0 1.1 0l1.149-1.02v15.297z" class="cls-1" transform="translate(-50.529 0)"/>
            </g>
        </g>
        <g id="Grupo_2882" transform="translate(52.944 8.446)">
            <g id="Grupo_2881">
                <path id="Trazado_3823" d="M117.018 203.527h-7.867a.415.415 0 0 0 0 .83h7.867a.415.415 0 1 0 0-.83z" class="cls-1" transform="translate(-108.736 -203.527)"/>
            </g>
        </g>
        <g id="Grupo_2884" transform="translate(52.944 5.956)">
            <g id="Grupo_2883" transform="translate(0)">
                <path id="Trazado_3824" d="M113.284 143.527h-4.133a.415.415 0 0 0 0 .83h4.133a.415.415 0 0 0 0-.83z" class="cls-1" transform="translate(-108.736 -143.527)"/>
            </g>
        </g>
        <g id="Grupo_2886" transform="translate(52.944 10.936)">
            <g id="Grupo_2885">
                <path id="Trazado_3825" d="M117.018 263.527h-7.867a.415.415 0 0 0 0 .83h7.867a.415.415 0 0 0 0-.83z" class="cls-1" transform="translate(-108.736 -263.527)"/>
            </g>
        </g>
    </g>
</svg>
