<svg xmlns="http://www.w3.org/2000/svg" id="Notificación" width="33" height="34" viewBox="0 0 33 34">
    <defs>
        <style>
            .cls-2{fill:#1c7cd5}
        </style>
    </defs>
    <g id="Bt_-_Back_">
        <g id="Elipse_324" fill="none" stroke="#1c7cd5" transform="translate(33 34) rotate(180)">
            <ellipse cx="16.5" cy="17" stroke="none" rx="16.5" ry="17"/>
            <ellipse cx="16.5" cy="17" rx="16" ry="16.5"/>
        </g>
    </g>
    <g id="notification" transform="translate(-33.403 8.326)">
        <g id="Grupo_2876" transform="translate(42.675)">
            <g id="Grupo_2875">
                <path id="Trazado_3820" d="M57.08 14.635l-1.241-2.069a6.147 6.147 0 0 1-.876-3.166V7.591a5.067 5.067 0 0 0-3.614-4.847v-1.3a1.446 1.446 0 1 0-2.891 0v1.3a5.067 5.067 0 0 0-3.614 4.847V9.4a6.151 6.151 0 0 1-.875 3.162l-1.241 2.069a.362.362 0 0 0 .309.548H56.77a.361.361 0 0 0 .31-.547z" class="cls-2" transform="translate(-42.675)"/>
            </g>
        </g>
        <g id="Grupo_2878" transform="translate(47.63 15.904)">
            <g id="Grupo_2877">
                <path id="Trazado_3821" d="M188.815 469.333a2.511 2.511 0 0 0 4.546 0z" class="cls-2" transform="translate(-188.815 -469.333)"/>
            </g>
        </g>
    </g>
</svg>
