<svg xmlns="http://www.w3.org/2000/svg" id="wallet" width="36" height="36.001" viewBox="0 0 36 36.001">
    <defs>
        <style>
            .cls-1{fill:#fff}
        </style>
    </defs>
    <path id="Trazado_3768" d="M34.368 18.154v-5.06a3.266 3.266 0 0 0-3.012-3.246l-4.7-8.207a3.238 3.238 0 0 0-4.442-1.2L6.106 9.822H3.277A3.276 3.276 0 0 0 0 13.094v19.637A3.276 3.276 0 0 0 3.277 36h27.818a3.276 3.276 0 0 0 3.273-3.273v-5.06a2.451 2.451 0 0 0 1.632-2.3v-4.909a2.451 2.451 0 0 0-1.632-2.304zm-11.33-16.3a1.583 1.583 0 0 1 1.215-.164 1.6 1.6 0 0 1 .983.76l1.594 2.789a5.618 5.618 0 0 1-2.281.492A5.637 5.637 0 0 1 20.1 3.567zM18.68 4.395a7.259 7.259 0 0 0 5.87 2.972 7.258 7.258 0 0 0 3.092-.711l1.812 3.166H9.358zm14.051 28.336a1.638 1.638 0 0 1-1.636 1.636H3.277a1.638 1.638 0 0 1-1.637-1.636V13.094a1.638 1.638 0 0 1 1.636-1.636h27.819a1.638 1.638 0 0 1 1.636 1.636V18h-4.909a4.909 4.909 0 1 0 0 9.818h4.909zm1.636-7.364a.819.819 0 0 1-.818.818h-5.727a3.273 3.273 0 0 1 0-6.545h5.727a.819.819 0 0 1 .818.818z" class="cls-1" transform="translate(-0.004 -0.003)"/>
    <path id="Trazado_3769" d="M374.463 302.552a2.1 2.1 0 1 0 2.1 2.1 2.1 2.1 0 0 0-2.1-2.1z" class="cls-1" transform="translate(-346.924 -281.882)"/>
</svg>
